<svg enable-background="new 0 0 501.551 501.551" viewBox="0 0 501.551 501.551" xmlns="http://www.w3.org/2000/svg"><path d="m384.454 0h-361.535c-11.494 0-20.898 9.404-20.898 20.898v459.755c0 11.494 9.404 20.898 20.898 20.898h361.535c11.494 0 20.898-9.404 20.898-20.898v-459.755c0-11.494-9.404-20.898-20.898-20.898z" fill="#f2f2f2"/><g fill="#4cdbc4"><path d="m40.682 73.143h316.604v26.122h-316.604z"/><path d="m40.682 153.6h285.257v26.122h-285.257z"/><path d="m40.682 238.237h212.114v26.122h-212.114z"/><path d="m40.682 318.694h153.6v26.122h-153.6z"/><path d="m40.682 402.286h92.996v26.122h-92.996z"/></g><path d="m354.152 341.682-62.694 62.694-83.592 16.718-54.335 10.449 10.449-54.335 16.719-83.592 62.694-61.649z" fill="#ffd15c"/><path d="m301.907 338.547-65.829 10.449 10.449-65.829 137.927-137.926 55.379 55.379z" fill="#ff7058"/><path d="m468.046 227.788-176.588 176.588 10.449-65.829 137.926-137.927z" fill="#f1543f"/><path d="m384.454 145.241-137.927 137.926-65.828 10.449 176.588-176.587z" fill="#f1543f"/><path d="m207.866 421.094-54.335 10.449 10.449-54.335z" fill="#40596b"/><path d="m493.123 172.408-80.457-80.457c-8.359-8.359-20.898-8.359-29.257 0l-25.078 25.078 110.759 110.759 25.078-25.078c7.314-8.359 7.314-21.943-1.045-30.302z" fill="#40596b"/></svg>